<mxfile host="app.diagrams.net" modified="2023-03-01T06:49:06.064Z" agent="5.0 (Macintosh; Intel Mac OS X 10_15_7) AppleWebKit/537.36 (KHTML, like Gecko) Chrome/110.0.0.0 Safari/537.36" etag="tizec2P0blSHN70B_bHF" version="20.8.23" type="github">
  <diagram id="lUdaiO9vyYA_eTEFXgUp" name="第 1 页">
    <mxGraphModel dx="2074" dy="1204" grid="1" gridSize="10" guides="1" tooltips="1" connect="1" arrows="1" fold="1" page="1" pageScale="1" pageWidth="827" pageHeight="1169" math="0" shadow="0">
      <root>
        <mxCell id="0" />
        <mxCell id="1" parent="0" />
        <mxCell id="wfrsAKLX0jw9gLdjKss7-1" value="&lt;p style=&quot;line-height: 140%; font-size: 30px;&quot;&gt;&lt;font color=&quot;#333333&quot; style=&quot;font-size: 30px;&quot;&gt;&lt;span style=&quot;font-size: 30px;&quot;&gt;&lt;b style=&quot;font-size: 30px;&quot;&gt;csd-counter-portal&lt;/b&gt;&lt;/span&gt;&lt;/font&gt;&lt;/p&gt;" style="rounded=1;whiteSpace=wrap;html=1;shadow=0;glass=0;sketch=1;fillWeight=2;hachureGap=12;hachureAngle=-41;jiggle=1;curveFitting=1;simplification=0;strokeColor=#666666;strokeWidth=2;fontFamily=Architects Daughter;fontSource=https%3A%2F%2Ffonts.googleapis.com%2Fcss%3Ffamily%3DArchitects%2BDaughter;fontSize=30;fontColor=#666666;fillColor=#95D2F5;" parent="1" vertex="1">
          <mxGeometry x="1410" y="1480" width="300" height="140" as="geometry" />
        </mxCell>
        <mxCell id="wfrsAKLX0jw9gLdjKss7-59" value="" style="edgeStyle=orthogonalEdgeStyle;rounded=0;sketch=1;orthogonalLoop=1;jettySize=auto;html=1;strokeWidth=2;fontSize=30;fontColor=#FF66FF;entryX=0;entryY=0.5;entryDx=0;entryDy=0;strokeColor=#333333;" parent="1" source="wfrsAKLX0jw9gLdjKss7-2" target="wfrsAKLX0jw9gLdjKss7-1" edge="1">
          <mxGeometry relative="1" as="geometry">
            <mxPoint x="1320" y="1680" as="targetPoint" />
          </mxGeometry>
        </mxCell>
        <mxCell id="wfrsAKLX0jw9gLdjKss7-2" value="&lt;p style=&quot;line-height: 140%; font-size: 30px;&quot;&gt;&lt;font color=&quot;#333333&quot; style=&quot;font-size: 30px;&quot;&gt;&lt;span style=&quot;font-size: 30px;&quot;&gt;&lt;b style=&quot;font-size: 30px;&quot;&gt;csd-app-backend&lt;/b&gt;&lt;/span&gt;&lt;/font&gt;&lt;/p&gt;" style="rounded=1;whiteSpace=wrap;html=1;shadow=0;glass=0;sketch=1;fillWeight=2;hachureGap=12;hachureAngle=-41;jiggle=1;curveFitting=1;simplification=0;strokeColor=#666666;strokeWidth=2;fontFamily=Architects Daughter;fontSource=https%3A%2F%2Ffonts.googleapis.com%2Fcss%3Ffamily%3DArchitects%2BDaughter;fontSize=30;fontColor=#666666;fillColor=#95D2F5;" parent="1" vertex="1">
          <mxGeometry x="910" y="1690" width="330" height="140" as="geometry" />
        </mxCell>
        <mxCell id="wfrsAKLX0jw9gLdjKss7-31" value="" style="edgeStyle=orthogonalEdgeStyle;rounded=0;sketch=1;orthogonalLoop=1;jettySize=auto;html=1;strokeWidth=2;fontSize=30;fontColor=#FF66FF;strokeColor=#333333;" parent="1" source="wfrsAKLX0jw9gLdjKss7-3" target="wfrsAKLX0jw9gLdjKss7-25" edge="1">
          <mxGeometry relative="1" as="geometry">
            <mxPoint x="536.5" y="1335" as="targetPoint" />
          </mxGeometry>
        </mxCell>
        <mxCell id="wfrsAKLX0jw9gLdjKss7-3" value="&lt;p style=&quot;line-height: 140%; font-size: 30px;&quot;&gt;&lt;font color=&quot;#333333&quot; style=&quot;font-size: 30px;&quot;&gt;&lt;span style=&quot;font-size: 30px;&quot;&gt;&lt;b style=&quot;font-size: 30px;&quot;&gt;cn-gaia&lt;/b&gt;&lt;/span&gt;&lt;/font&gt;&lt;/p&gt;" style="rounded=1;whiteSpace=wrap;html=1;shadow=0;glass=0;sketch=1;fillWeight=2;hachureGap=12;hachureAngle=-41;jiggle=1;curveFitting=1;simplification=0;strokeColor=#666666;strokeWidth=2;fontFamily=Architects Daughter;fontSource=https%3A%2F%2Ffonts.googleapis.com%2Fcss%3Ffamily%3DArchitects%2BDaughter;fontSize=30;fontColor=#666666;fillColor=#95D2F5;" parent="1" vertex="1">
          <mxGeometry x="64.25" y="1270" width="301.5" height="130" as="geometry" />
        </mxCell>
        <mxCell id="wfrsAKLX0jw9gLdjKss7-23" value="" style="edgeStyle=orthogonalEdgeStyle;rounded=0;sketch=1;orthogonalLoop=1;jettySize=auto;html=1;strokeWidth=2;fontSize=30;fontColor=#FF66FF;entryX=0;entryY=0.25;entryDx=0;entryDy=0;strokeColor=#333333;" parent="1" source="wfrsAKLX0jw9gLdjKss7-5" target="wfrsAKLX0jw9gLdjKss7-2" edge="1">
          <mxGeometry relative="1" as="geometry">
            <mxPoint x="415" y="1575" as="targetPoint" />
            <Array as="points">
              <mxPoint x="680" y="1575" />
              <mxPoint x="680" y="1725" />
            </Array>
          </mxGeometry>
        </mxCell>
        <mxCell id="wfrsAKLX0jw9gLdjKss7-5" value="" style="shape=image;verticalLabelPosition=bottom;labelBackgroundColor=default;verticalAlign=top;aspect=fixed;imageAspect=0;image=data:image/png,iVBORw0KGgoAAAANSUhEUgAAAOEAAADhCAMAAAAJbSJIAAAAe1BMVEX///+VzwCQzQDx+N3W7LKj1T+d0iqx21nk8sbm88rD44fE44mNzACRzgCWzwCZ0QDL55P8/vf3++y13WPW7Kvz+uL8/vj0+ubQ6Z3f8Lyt2U+84HTU66b5/PHh8cCq2EfB4n7q9dOm1ziZ0Ru23mK43m3O6Jik1i/t99eGV6lBAAAHgklEQVR4nO2dbXeiOhCAJVBfaoCKWt8Vxdr+/194iXYVdAbCEibZe+b5sudsNWceMiYxiUmvZ4ZV1t8bKkqxz7KVweIMsAg9T/wYK+5HeF64MFacCfw8JK9vrLjvvDTpGyvOCAdViamhwt5VFR4MFWYKlaaeGBkpa6QSwrEkzdlKlacTAyV9XnN0a6Akw1zzdGOgoNTFHFUsPPXo23cZQ5UMnnM5qgjUxydqm6efkfpAB0YiMs5U5em0ZSFfKkfbFtIVE6/941+pRPBMNFidsFcfoShpUUISmfkwd8ZGpdga+MNk4Q+D7WX8nm7S9/FlGwz9BVRRA1MNclfsMlUFs9L/+avx9NCPhBSKMAyv/0oR9Q/T8ao8NJupJMh2lCE3ZVgejoy2gyg3UuMdCPWnaLC9j4RuA6OhndB1eXTXyWwQSlSuqCnDwez64V2bHNx2hspTscz1PA27h6WXSy5VAmS2BWo5Xpt7T2jb/eH3fUfbAvWMm8sVNN9th19L8h61EMx707RNd9o9SfoX6flUi57Ljh+t/W6OH7ZFEFaxCb+rY+zYRNuVZGrKTyGnzqVqEJkUzKsxcusr4ueXNOqnkF+ftrUe+JnZCrwhMmdmTFcd6N1wpMG5dFGBN4QT/cbG/EfwgfyyrXebOeoQYV0R6gWljPPv8E1VpIglkA6tJ+9aAtSgWO/zZv4n1f92eH1X+pN3Ovs1UJ7VWkyBh/6np573Gwj257/vCl7/JlNLdr3f1ZincB4NfKL/PaowA7kCyrS2SjN6TcRwUPh7oNvKyuIIbQCUambVrjEJFGsxls9M0zArjs9G0HOxMw5/A9qSsDSWnOq1NuVlik+o2DdatRtL6FnHpZdsNA3Lk9wx8BK5pFS74YPBCgN1CPek9KPwNRh9aVFlAtUGRFxcwtiD7RO4GtIpATJmKQYy0x3XiOJKxxp+jaT+noE1k4VlmYWmn+KxqD3DuhjiyfAtWj3iT/fs6+aoIvb1C6ahInp5CJLdbrRpNvQWm9FulwSHikFCXB+WOfAnfY1WxJ5sNvDOmxLpxWF1sZSVeGoYvhlOdILHbr/1YhCuS2mOVUwTki3wa/fkpompZlCHXc49VSGplvgbTlCYg2yN31aSknWJO1tJmqcpzVabvZ2+QiFo9oN1OItfa3ghMTzbamjyHvFMYmhnyHaDZuCmO4PWBSRfEnftNsy0I6JoTBtMZXdgSDFxOhc2mdcH2JpdYBOnd9cyDMMwzD/H8eO8PqzPl9cpyvnpzR6n1zHN8XKN9KPZZOo2vv3QJRQimj39zbf39TAP6HmhdBbdI431Z/1HWXEmRmblnRDw4i8VfoNIUZbPsxTlJRGHDF8WiITWcj+wA6G0ZccdQ2jDkobiCppnKs5xOWMIzvmJ2sXwHTxHUdjT44ohsh+p9teLH/BUYWGzriuG9ZHCYF2BcM4Qm7UNqwWBnYE3Hss+jhiiC2A121LQtc/Hso8jhilah9XrqG9o0fetQI4YIhuLcqp3+eGzvffZZkcM8Zn36lljvOj7AUKOGFbssWZDBDYkgg0VbIjAhkSwoYINEdiQCDZUsCECGxLBhgo2RGBDIthQwYYIbEgEGyrYEIENiWBDBRsisCERbKhgQwQ2JIINFWyIwIZEsKGCDRHYkAg2VLAhAhsSwYYKNkRgQyLYUMGGCGxIRGtD/OyZf8cwqjTEf4lyv77WEcMD+pLqs6TQ86kfJ1I7YqgRKQh6fPPjAlVHDLHDqMsHS7+Cnhgo70duO2I4QSOt+ZkscvNW4aYQRww1IoWZw+lduOncFcMFEmntWVngD4hl4bxCVwx7FyhPde5PAmq/dNWLM4bgJTda9+4MXs5iKL3NHcPXyhCDnhYfpVtgw6eKd8iwJtIK/PP9uiYhp08Hprhk2POnhUjPTe7A8JfX8Vt0Wr40TU4Z5o3/8nQdTJ+Wze/42M3BvtMxw4pI/xYHDQ3DhmzIhmzIhmzIhmzIhmzogmGTC+PMs6gPsDXat4t2QUZyH5JNw359eAZAz4LrHqLrkMDrbGmQRBcD20tTqnss0eMju4buLlLgBnQKBN19skmTa9PN0Se8u9rOuIb00uNFnzpRRZ9iOFMk9SgdhZcS++UsNpkUIrxTFWAIo/cWIWS2oa7AG5PjZfw1uIM3PwMMdPtO//Gar/HlOKkPhgJ0Lw56SdMcTXTCi3H1SZrfN11xRTVhx6CNj4500IVL5NDxHEnaM2iCD8jFO/KWMW5IdWtsE9gQgA0dgw0B2NAx2BCADR2DDQHY0DHYEIANHYMNAdjQMdgQgA0dgw0B2NAx2BCADR3D7MrMD2nsevz/V9d2MVoh2F4tPLFjoz/VMgV6BkCEhYtcIF17aoAtAqRGKsLFHkrNqQG2mCA1IvANhSPkg5g5sjXhGbgSxbniLfCxAdLNKuxhO/qqmsUd+EwOFe+wy6T/+rmqyFEFkKehqzmqSE5PAYde3eBkGD09FXFysS98sCn9Ql6+1e/WWrwVP76hqL443AGOA/krKeR3UP/6nOD790f1oZCDY8fxmSCZTU9Z9L1e6o8tf5br7yg7TWcdJOh/HTOv2K18DW8AAAAASUVORK5CYII=;imageBackground=none;" parent="1" vertex="1">
          <mxGeometry x="150" y="1530" width="100" height="100" as="geometry" />
        </mxCell>
        <mxCell id="wfrsAKLX0jw9gLdjKss7-19" value="" style="edgeStyle=orthogonalEdgeStyle;rounded=0;sketch=1;orthogonalLoop=1;jettySize=auto;html=1;strokeWidth=2;fontSize=30;fontColor=#FF66FF;entryX=0;entryY=0.5;entryDx=0;entryDy=0;strokeColor=#333333;" parent="1" source="wfrsAKLX0jw9gLdjKss7-6" target="wfrsAKLX0jw9gLdjKss7-2" edge="1">
          <mxGeometry relative="1" as="geometry">
            <mxPoint x="680" y="1740" as="targetPoint" />
            <Array as="points">
              <mxPoint x="460" y="1760" />
              <mxPoint x="460" y="1760" />
            </Array>
          </mxGeometry>
        </mxCell>
        <mxCell id="wfrsAKLX0jw9gLdjKss7-6" value="" style="shape=image;verticalLabelPosition=bottom;labelBackgroundColor=default;verticalAlign=top;aspect=fixed;imageAspect=0;image=data:image/jpeg,/9j/4AAQSkZJRgABAQAAAQABAAD/2wCEAAkGBxAQEBAQDQ8QFg8OEA0TFRIPDw8PEBIVFRUWFxUVExYZHSggGBolHRUWITEhJikrLi4uFx8zODMsNygtLisBCgoKDQ0ODg0NDy0ZFRkrKysrKystLSsrKysrLSsrKysrKysrKysrKysrKysrKysrKysrKysrKysrKysrKysrK//AABEIAOEA4QMBIgACEQEDEQH/xAAcAAEAAgIDAQAAAAAAAAAAAAAAAQgGBwIEBQP/xABBEAACAgECAgYGCAMFCQAAAAAAAQIDBAURByEGEjFRYYETIkFCcbEIFCMyUmKRoWOi0XKzwcLwFyQzNDVDU4KS/8QAFQEBAQAAAAAAAAAAAAAAAAAAAAH/xAAWEQEBAQAAAAAAAAAAAAAAAAAAEQH/2gAMAwEAAhEDEQA/AN4gAAAAAAAAAAAAAAAAAAAAAAAAAAAAAAAAAAAAAAAAAAAAAAAAAAAAAAAAENgScWzoa1rNGHTO/KsUKq1zb7d/Ykva/Arr0+4r5ee51YrlTiPrR2jLa2xd837N+4Dd/SLiJpeC3G/KjK1b/ZU/a2J9zS7PMw/F42VX5VGPjYdm1+Rj1de2xQ2Vk4w62y3799ivTZk3DXGdurafHbfbJrk9l+D1t/5QLdIkhEgAAAAAAAAAAAAAAAAAAAAAAAAAAAAAA+V1sYxcpNKMU22+xJLdtn0ZrHjx0ieLp6x6ntbmz6jafrKtetJ+b2QGpOKPTezU8lxrk1h0Nxqgn6sufOx97fySMH3OTIChtr6PWhu3MtzJR9TGr6kX/En2+e3zNXafh2X2wppi5W2yUYxXtbZbPoB0ZhpmDVjLZ2fftklt17ZfefwXJeQRkiJIJAAAAAAAAAAAAAAAAAAAAAAAOO5878mFcXK2cYwXbKclGK83yA+wMQz+JmjU8pZ9Mn/Bbu/ePI8//bDou+31ifx9DPYDPwYrpnEPSclqNWfQpPZKNsvRNvuXW23MnrsjJbxkmn7YtNAcmVt+kDqPpdUVO/q41EFt3Sm25f5SyRV/idpOXkaxnSpxcmcZWwUXXRbNPauC5NLs3A1+kfbHx5WSjCuLlObSjGKblJvsSM96P8IdVyWnbUsevfnK97T8oLmbn6E8OcHS16SMfSZO2zvt5uPf1F2QXj2hXicI+HH1CP1vNSeZOO0YcmqIvu/O/abRSMb1Xp1peLur86hTXuQmrZ/pHcxq/jXpMXtF5EkvejS9v3CNlA1tj8atIk9pu+HjKlv5GTaP050zL2WPm0Ob9yU1XP8ASWwGRghMkAAAAAAAAAAAAAAAAAfOyxRTcmkkm220kkvazlJ7c2V64wcSZZM54OBZtiwco22R3Tukns4p/g+YGR9POM0KZSx9JSssjupZE/8AhRf8Ne81+hpXXdfys2bszL7LJN7+vJ9WP9mPYjzNyAqQQAOSZ7Gg9J83BkpYeVbWlv6kZt1vfvg/Vf6HigDcuhcdr4JRz8WNiW3r0v0c38YvkZRHjrpfV3dGap/g9FS/39JsVz3CYG69c48yaawMNR39/ImpS/8AiP8AU1pr/TTUc7dZWXbKD3+zjJwq+DguT89zH2yAJG5AAncnc4gDN+h/ErUNPcYq1246a+xuk5LbuhJ84ssL0K6b4mq19bGk42wS9JTPZWQ/qvFFRDv6Jq1+HfDIxZuFtb3TXY++Ml7U+4C6O5Ji3D3pdHVcNZCh1LYPqWw2eymkt+q/an2mUhAAAAAAAAAAAADhY9k2+xJv4bAa0439MXhYqxaJ7ZOZGS3XbCrslLwb7F5lbW/0Ml4i668/UsnI39Tr+jr7lXDdRS/d+ZjDC4AAKAAAAAAAAAAAAAAAAmJsHhfw6s1Sz016ccGtvrT7HbJe5Dw75ew8PoB0Ts1TMhjwe1UdpXT/AAQT57eL7EWw0vAqx6oUUQUaqoqMYpbbJf4hDStNpxqoU41cYVVraMIJJLx5dr8TuABAAAAAAAAAAAQzG+I2q/VNLzb09pRplGL/ADWbQj+8kZKay+kHl+j0mMF/38vHg/glOz51oCtkzicmcQoAAoAAAAAAAAAAAAAExIOxp2M7bqqk9ndZXXv3deSj/iEWU4H9HY4umwvnH7fN+1b9qg/uLw5LfzNipHyxKVXXCuK2jXCEUl2JJbI+wQAAAAAAAAAAAAADUn0kP+n4vd9cX91YbbNUfSNhvpuNL8OdWn503f0ArqQSQFAAFAAAAAAAAAAAAAA9Xop/z+Dv2fXMT+9ieUfbDyHVZXbH71U4TXxi018gi7aJOtp+QraqrI/dsrrkn27qUU18zshAAAAAAAAAAAAAAMB444bt0XIaW7pnj2rbwmlJ+UZSfkZ8eT0r0/6zhZWP/wCbHugvi4vYCmhB9LYOLcX2xbT8GuTPmFAAFAAAAAAAAAAAAAAlEAIs5wO19ZOmQolL7XCbqa7H1O2t/o9vI2KVD6BdLLdLy4ZFe7rbUba/ZOv2+a7UWv0bVacuiF+NNTqsSaaf7PuYR3gQSAAAAAAAAAAAAhkkNAVJ4naM8PVMurbaErHbDxhZ6yf6tryMUN9/SI6P9aujUK4rep+ht2Xuy5wb+D5f+zNCsKgAAAAFAAAAAAAAAAAAARMXsZX0G6dZWlW9amXXom/tKJN9SX5l+GXiYmALa9D+n+BqcV6C1Qu29ai19WxPw35SXijLNyn3QbSJ5udjY9bac7E5SjycIR5yafs5cvMt9TWoqMV2RSS58+S2594R9AAAAAAAAAAAAAHmdItJhmY12Nat4XQlH4Pbk/JlPdX06zFvtx7k1ZTOcHumt+q9t14PtLqM0hx/6Jfd1OiPZtXftz5PlGb+QGjQSyAoAAoAAAAAAAAAAAAAHKKIPX6KaJPPy6cWpc7ppSfsjD3pP4L5hG4/o9dG3Cq7ULY87pOqrde5H78l4N8vI3MjqaVp9eNRVRTFKumEYRS7kjuBAAAAAAAAAAAAABB1tRwa76rKboqVd0ZRlF+1M7RAFQunnRWzS8yzHnu63vOqb9+vfk9+9djMcZbTiJ0Or1XFdb2jkVbyps25xl+Hf8L5blVdT0+3GtsoyIOFtUnGUZcnuvau9eIHUBLICgACgAAAbDYAAAAByiAiixXA3oX9UoedkQ/3nKhtBPfeultPb4yaTNfcIeH8tQujlZMX9Somns1yunF/dX5e8spCKS2S5Lu5BHJEgBAAAAAAAAAAAAAAAAEbGD8SeHdOq19eLVeZXF9S3b1Zfls714+wzkhgU16Q9HcrAsdWZTKE12PbeEvGMuxnk7F09V0nHyoOrKortrfu2wUl5dz8TB8zgto1j3jXfXz32qyJbfzqQFZEj2dA6L5udJRw8aya5by6rjWvjJ8ix2mcJtGokprE9JKPZ9Ytstj5wb6r/QzTHx4VxUK4RjFdkYRUUvgkFrRWicBbppSz8yNba510Q9JJPucm0v2PehwEwPbmZj+HoF/kZtzYkI1BfwEwtn6PNylL2Oapmt/FKK+ZgXSXg/qeJ1pUxjkVLd9an1Zpd7gyzhDQFJMiiUJOM4yjOPbGScZL4pny2Lj690UwM6PVzcSmzk0pOPVsX9mcdpLyZiF3BPR5PeMcmK/DDIbj/Mm/3C1WhL/Xf8DZXDrhVkZ8o35sZVYa2fPlZcu6K91eJujQOG+k4UlOjEjK1dll7ldNeMes9o+SRlkVsEdfTcGvHqhTRCMKqoqMYx5JJHZJAAAAAAAAAAAAAAAAAAAAAAAAAAAAAAAAAAAAAAAAAAAAAAAAAAAAAAAAAAAAAAAAAAAAAAAAAAAAAAAAAAAAAAAAAAAAf//Z;" parent="1" vertex="1">
          <mxGeometry x="150" y="1715" width="105" height="105" as="geometry" />
        </mxCell>
        <mxCell id="wfrsAKLX0jw9gLdjKss7-17" value="" style="edgeStyle=orthogonalEdgeStyle;rounded=0;orthogonalLoop=1;jettySize=auto;html=1;fontSize=30;fontColor=#FF66FF;entryX=0;entryY=0.5;entryDx=0;entryDy=0;sketch=1;curveFitting=1;jiggle=2;strokeWidth=2;strokeColor=#333333;" parent="1" source="wfrsAKLX0jw9gLdjKss7-11" target="wfrsAKLX0jw9gLdjKss7-15" edge="1">
          <mxGeometry relative="1" as="geometry">
            <mxPoint x="430" y="1830" as="targetPoint" />
          </mxGeometry>
        </mxCell>
        <mxCell id="wfrsAKLX0jw9gLdjKss7-11" value="" style="shape=image;verticalLabelPosition=bottom;labelBackgroundColor=default;verticalAlign=top;aspect=fixed;imageAspect=0;image=data:image/png,iVBORw0KGgoAAAANSUhEUgAAAOEAAADhCAMAAAAJbSJIAAAAkFBMVEX////pPjDoLhv3w8DpPC7oKRP84d/oMiHzpKDqRzr+8/PpOivpOy3oNSXoLRr86ej+9fTwi4X85+bsXFH62Nb4y8j0q6b2urb/+vnve3P1sa3nJQ3tbGP97u3whX7znpnrUEPsYVjvfXbucmrrVUnqSTz50M373dvxj4j1r6rxk473wLzsX1XnFADtbWXxmJLp+U1AAAAJp0lEQVR4nO2daXviOBCEwRgUMDZnwNwQjrAkk/z/f7f2kOzMhi6BQ7Xt2dX7eZ4RHYNUqj5cqTgcDofD4XA4HA6Hw+FwOBwOh8Ph+M/wWCsxL4wIN3WvtEQ/GBE+hdXS4jcZEfZKHGEwYES4MkXHgQm2jAj/KnGEYY8RYc0rOg6MWTEiHEZFx4ExI0aEjRJ/S70xI8J+4BcdCCR6ZES4aJY3wnqDEWG8bhcdCKS+YERYGQRFB4LwwxYlwnlpI2zvu5QIJ6WNMBjElAiPpRWmwRslwMpDaQ/E8IkT4bi0si08ciJ8LG2EHFlaqRzKG+FfnAgbpY3Qq3EibJmyyrZoyImwUtYIfUORpQl+WSMM+qQIdyUVNX6TI0vLK0zba45oq1SWJZVtHC8xpax+YjBnRTgtaYQsWVpeYcqSpYkwLamfaB5YET7Xi45FxqPk1lIWs6JjkfEoXmJKjJ9hu64OPow9liy1yLb27rmhTH8LQ/RYstQi29p7lqrAQEXlG5Zosy0S8BZBQLvWN7xFcKKbZDpbwJa7X+WtcsIR8n4KAJw2CXa8VbAw5SR/bODUF8stTcGJbk4CzwZOX4ZL3iovUJhykrA2hvAwZnmJ+a0ig8sIzJS3Sh9GyCmGsGH5hdBkabKfhfDXTilosZHPLtfCOzbNSEDgkqz6M2+VGMo2TmGZDaw2Zkw9tYERRsRVRLDRFzE1Mdb3M2XpHWNZShRtVmHKsp0B3SaSpUzRZhOmtOQIoIW3cZqXmIIT3REpwYVY4KOYKNpsfqK2MG3gCE/MdQ7QT5SEaX/1QAMfhzwvMWUIn6H0l2z8MDRwyoQpS5PPjH/vk8t/vcjFQWaluD8+M3Tbgo3wr3Op16xTd/EYC9P15b/u7vOoZqx3mBFWsB0kCFMsY4n4IdcEw9rJF8oD80ga81LcZ95ghKEg2yY5JI2DHVcRw0S3b4RbWh5pcWmLu4d37CUcLv81lrHECMnuAk50S15CHvWaXFma1fGa5pAW58pSqzAV/MQ80uJcWWpLdEt+Yh6NROxLDU50h4Iwfc6h1i8Sdri7gBFKV+08GokM21yIsjimi6p6hH7IzutBQ6i9vpRtsb709qvs3Cx2TKWldoHPAUfYZNuYUGr6RhCm8yaHPQyxvSYHmDHR3W1R6PbxzfuVHaHFT1RMdPdzTHphIabpJw5zSXGfsQhTxUQ3bmbhJ5+xMA3f2Wv9Av9dPaqXmNIpJNE9wtdSejahiyMUhCmLd5wRYsvSSjeTY8oC2yHMFPcZXF7G63q4xJKZ5RfUYdkW6EUIF63O+Ithh7DOaagWsFRIePzVLFUfXHv9N1rwjtLe81ezbGtqie5sCaF7wcKUfzR90sdpS1q7zC8siW66vPjE4n8pCCnsEOoJU8uaZC8xJa+Sgd+xXGgUvjd96BDqybZ8f/vYP+Nftz/Jt1CphWWbWn0ilqUzjTMYD+Lx9wnrlN1PBimvr6+bn8x/8va2/ckk5SlleaaXcDwee9LXDsvSSENHYY1YbZ8JrhJCZtIAiFdsYWpo4a1q2lPaOrCxrHOf0U1dS/e9GDttKndS3Y5u6YLSzZTwuh/Vjm7xh2URGSrekOqESLHmP29/T3UQj/i1y7sZ6Rl/SwOpfzdTClFsrce/Cx2fvWPZ2RadC7KNWxTvCpZcCd1LTOniRkCxcQYe1xJiDxMeFBfpNHZC6S3n8jLNkBaLRaHGEIvpCFgqMCWVmOX89I2kpC3NJDrtx9gx9aXPl2VeiN+UPrLlS6NjYOJEt1gXkaUwSh7xCLdjrY45fB8VxzdgRSJ8ZKn/Jc5Uw8MAp7rERDf+gJeI5qAloafkm2RtnMlQ+mUkFfaMRZtSytKS6Ba9vQz17OKfyOIlKvVX44pDeZxRhiuzVGhskaVaHrSlo1v02HGm4ytisbili1urwMWyt4nFLXhnuogwkI5D/BcSHzkDL5upgL9lFxGKfiSUffIjZwBvC7LGwJMYLv5CYsMrnooTamUsLTpR6l/B7Z8XEYrfcrycWl4dGrS+kX5HXWOCG+pM/SCciXtxLqN3/o0l0S3eZg6rt2ZkQkuU7dDU/c1yKn3rupYfhVaElhEVaHNrNabLdd0LL2/PfmCi2Xo5GqKLUKeACh5LDZZ1zMii9j6IvORh+p/BhV5k5g+P1u4z3Leql87DwvT62Ol4ONquTfIwQ89rbk616zZEtt5jDvcKxbjx0pv3xs+3XV+LSKvnm+guYgaAZb6BQvFHEXXXLewnKuxu2EvkdnH/Du7R1jihLPNU1MrMLLNiAv5qhczEgf3OGsWQOMWtUJf4iWVmE92i7eLaD4W6xE/ymbt1plVA/U6+EyIXuAZLcUacJaFHnH93xuIK0cZ4X4L9xHBFziTEFhGsOKvR0sEcNucj2kHcmE72ltE7im1IDYuNndz3vHA7vTt1uRgvfc+zXZs1W8mudTAnUc6ay3HnuyfyonbczTx4L/xAJ8V9Bk+I/EU7uQAOlrXMSdrF42ljovCGTIDm7OIbX4WY3uGD3fHx9kd5WL36kWB1iESa86dvfxViEmU0260OV7fYePiwmUXm9g5+39ecIZ5xeFBg6uHbwxB+orgxmlTrJtt/qpXiPpN9eFBqqTW3I0HUNcaTtWeubSuXBK+a4za/9yrEdmCMPxn/tvksXpZNYz0SLBESx3hfcns66St+6M2qvXEnPRJO6+RIaGd+eB9oOCa/uD2dBKKMXue3HQmWCBVlKeFViH5w99gT3RHi2KXND+5EyK/0S/DWIN2ZsN0yRKg71xcO4skN3ksPZYp/FaJcJsij+FchsidCfgU7pnmhlwA+U/yrELXfVVD8qxC1Ki8/Kf5ViLqytAyvQtRLcZ8p/lWI2u/uyVLarAPfXf83rcJfhaj9Dq145mUwjdikJt4P5ddNVOLDalO92fhjEoRRMDg9atpQ//Bh3uYxeP0DP/Tqu152m/muKGvH/T1uS4boAjML7kgV3BXl+OnbjtnN0ZkqId1zD43pZB19w/W8Kbqo+cZL2d1B9/lhG2R1rq/QDiNvvsJuef7Eh4fBjLPFpkfCbP+ez6aZjfjxNAjujDKJLtwtayV6dl/p1HoDewbX8vBCL9otX3I9Er5HZ9xrXs/kfokuMPXgadov4kj4Hv3pJPBuKtX/qACYS+mpsjMcbZvXUp9pIrW6WQ3/nGf3hdZw9RZG6CBJjgSzOR3UX5qsTeuw2l0cJH47PRJOZd40s9GtHdfhP10XSXRmv3z545/dV/ovy11ykIQmWk+KVZqKxP3p03Z0YzeCw+FwOBwOh8PhcDgcDsf/ir8BKPzP3ayylzcAAAAASUVORK5CYII=;" parent="1" vertex="1">
          <mxGeometry x="150" y="1910" width="100" height="100" as="geometry" />
        </mxCell>
        <mxCell id="wfrsAKLX0jw9gLdjKss7-14" value="客户端" style="text;html=1;strokeColor=none;fillColor=none;align=center;verticalAlign=middle;whiteSpace=wrap;rounded=0;sketch=1;fontSize=30;fontColor=#FF66FF;" parent="1" vertex="1">
          <mxGeometry x="96.87" y="2050" width="190" height="40" as="geometry" />
        </mxCell>
        <mxCell id="wfrsAKLX0jw9gLdjKss7-21" value="" style="edgeStyle=orthogonalEdgeStyle;rounded=0;sketch=1;orthogonalLoop=1;jettySize=auto;html=1;strokeWidth=2;fontSize=30;fontColor=#FF66FF;entryX=-0.001;entryY=0.807;entryDx=0;entryDy=0;entryPerimeter=0;strokeColor=#333333;" parent="1" source="wfrsAKLX0jw9gLdjKss7-15" target="wfrsAKLX0jw9gLdjKss7-2" edge="1">
          <mxGeometry relative="1" as="geometry">
            <mxPoint x="800" y="1835" as="targetPoint" />
            <Array as="points">
              <mxPoint x="677" y="1803" />
            </Array>
          </mxGeometry>
        </mxCell>
        <mxCell id="wfrsAKLX0jw9gLdjKss7-15" value="&lt;p style=&quot;line-height: 140%; font-size: 30px;&quot;&gt;&lt;font color=&quot;#333333&quot;&gt;&lt;b&gt;h5-gateway&lt;/b&gt;&lt;/font&gt;&lt;/p&gt;" style="rounded=1;whiteSpace=wrap;html=1;shadow=0;glass=0;sketch=1;fillWeight=2;hachureGap=12;hachureAngle=-41;jiggle=1;curveFitting=1;simplification=0;strokeColor=#666666;strokeWidth=2;fontFamily=Architects Daughter;fontSource=https%3A%2F%2Ffonts.googleapis.com%2Fcss%3Ffamily%3DArchitects%2BDaughter;fontSize=30;fontColor=#666666;fillColor=#95D2F5;" parent="1" vertex="1">
          <mxGeometry x="527" y="1945" width="300" height="140" as="geometry" />
        </mxCell>
        <mxCell id="wfrsAKLX0jw9gLdjKss7-24" value="h5后台" style="text;html=1;strokeColor=none;fillColor=none;align=center;verticalAlign=middle;whiteSpace=wrap;rounded=0;sketch=1;fontSize=30;fontColor=#FF66FF;" parent="1" vertex="1">
          <mxGeometry x="582" y="2100" width="190" height="40" as="geometry" />
        </mxCell>
        <mxCell id="wfrsAKLX0jw9gLdjKss7-57" value="" style="edgeStyle=orthogonalEdgeStyle;rounded=0;sketch=1;orthogonalLoop=1;jettySize=auto;html=1;strokeWidth=2;fontSize=30;fontColor=#FF66FF;entryX=0;entryY=0.5;entryDx=0;entryDy=0;strokeColor=#333333;" parent="1" source="wfrsAKLX0jw9gLdjKss7-25" target="wfrsAKLX0jw9gLdjKss7-1" edge="1">
          <mxGeometry relative="1" as="geometry">
            <mxPoint x="1401" y="1445" as="targetPoint" />
          </mxGeometry>
        </mxCell>
        <mxCell id="wfrsAKLX0jw9gLdjKss7-25" value="&lt;p style=&quot;line-height: 140%; font-size: 30px;&quot;&gt;&lt;font color=&quot;#333333&quot; style=&quot;font-size: 30px;&quot;&gt;&lt;span style=&quot;font-size: 30px;&quot;&gt;&lt;b style=&quot;font-size: 30px;&quot;&gt;csd-admin-backend&lt;/b&gt;&lt;/span&gt;&lt;/font&gt;&lt;/p&gt;" style="rounded=1;whiteSpace=wrap;html=1;shadow=0;glass=0;sketch=1;fillWeight=2;hachureGap=12;hachureAngle=-41;jiggle=1;curveFitting=1;simplification=0;strokeColor=#666666;strokeWidth=2;fontFamily=Architects Daughter;fontSource=https%3A%2F%2Ffonts.googleapis.com%2Fcss%3Ffamily%3DArchitects%2BDaughter;fontSize=30;fontColor=#666666;fillColor=#95D2F5;" parent="1" vertex="1">
          <mxGeometry x="919" y="1260" width="322" height="150" as="geometry" />
        </mxCell>
        <mxCell id="wfrsAKLX0jw9gLdjKss7-26" value="运营后台" style="text;html=1;strokeColor=none;fillColor=none;align=center;verticalAlign=middle;whiteSpace=wrap;rounded=0;sketch=1;fontSize=30;fontColor=#FF66FF;" parent="1" vertex="1">
          <mxGeometry x="120" y="1410" width="190" height="40" as="geometry" />
        </mxCell>
        <mxCell id="wfrsAKLX0jw9gLdjKss7-27" value="B端BFF服务" style="text;html=1;strokeColor=none;fillColor=none;align=center;verticalAlign=middle;whiteSpace=wrap;rounded=0;sketch=1;fontSize=30;fontColor=#FF66FF;" parent="1" vertex="1">
          <mxGeometry x="985.5" y="1420" width="190" height="40" as="geometry" />
        </mxCell>
        <mxCell id="wfrsAKLX0jw9gLdjKss7-28" value="C端BFF服务" style="text;html=1;strokeColor=none;fillColor=none;align=center;verticalAlign=middle;whiteSpace=wrap;rounded=0;sketch=1;fontSize=30;fontColor=#FF66FF;" parent="1" vertex="1">
          <mxGeometry x="964.5" y="1845" width="190" height="40" as="geometry" />
        </mxCell>
        <mxCell id="wfrsAKLX0jw9gLdjKss7-46" value="" style="shape=image;verticalLabelPosition=bottom;labelBackgroundColor=default;verticalAlign=top;aspect=fixed;imageAspect=0;image=data:image/png,iVBORw0KGgoAAAANSUhEUgAAAOEAAADhCAMAAAAJbSJIAAAA21BMVEX////lOTW3HBygHBy3GhrlNzO0AAC5HR3kKiXlNTHiNzPbMzDoOjbkKSTDJCPOKynMKijkLyq2FhayHBzzr67++vroU1C1Dw/kJR/VLyy/ISH4z87pX1z98vL74+P0tbT2xMPyp6b86un1vr3qZmPrbWrmREDxnZzjHBXthILsenj62trui4nvk5H2wsH4zMvmuLjLaGjSgIDepKTrcnDnTEmqIB+/OzvBRkbqxcW9MjK7KSnZlpbIX1/Nbm7AQEDjEQbGUlLViYnHMS/HHhzdoKDPdnbhra3UhIT8sBHRAAAPR0lEQVR4nO1daXfauhaNfbFjAw4xZXACNvMcmg6hbYa2N+1rc///L3oSCcSApLNlCCRrea/V1Q9JhLZ05nNsjo5SpEiRIkWKFClSpEiRIkWKFClSpEiR4lWi3Sy1Wq1Ss33ojbwIwsbYHXoORzA0Rp3w0BvaMSYjy/MtYwHLD6yLyaE3tUPUek6M3oKk17s89MZ2g3Kn7rnr/OYcXa/eKB96e1uj3Jo5roDeI1yvP3jbChlOXQW/OUffH0WH3mZiRKPhhvoJhNUfdmuH3moi1HpDn6T3dJFBpfPWFJKZl0Atnusc+623pJBhaabFb87RsaZvRSHbg76ny4/D8v3xW1DIyShuPvWYWr5T7xyaAIFaz4+bT6uCWNM4R+YhW6/Y6LyvBKvRi9NpT11ZRCO5X9fxp68z+SiX+hvmxe2zH3Tq/rrbtxiNypVMhJmHHL++sLw9sETmxWnwH0aDWSyzcH3P6DWio7FCSVkUcPmqhDW6cByhvrmVx18oN6/mBshi9CqjSy6FbbWGsiig9Go8ZO1qMzlawFvaxmhQCTynO5g83c2Ainh4WP4qPGSnLufHtll//s1ys/RsQsoz2pOwaz+4QpZLM7GpfL7EpvgvOx5J0Jh7yO4h8+RwYBHJEbuHrvhvu2AwwDzkrLFfWku0R0OxeVnZn/+vMBKbeHgk4Hr+IfLkyRUdrri+M5MYi5FWaG45wZ7z5HKzSyZ/lu/1R9JIOprqheeWH1ztTyHDUoW8ARarjZtK0Qob9UAraPWDPRWugOTI9YNuCYgta+ONeI44tlnrxUPW6MIgN+VX4H2w49KrBTjGxYsq5OTKpwXLHXdqkwg1fuVOHa7ncLA8ufdieXITVBzX8Rgco9IbDRrvayTZ6EIrUbZ44eoF6ImSI+U+LJYB+r7jBcFwaFTWC4blchhddkqt6bg7M9RRkegMA2vXhauwZSSqvSzoun5laQbLo1697w6HAQvEHd93tfnNV/T8XRaumBiR0QsFr7VYrRO4EKt81sirOPrOrsJyZtP1ii3iDbkL+1pHhCFv5E7efTnNqjkG3eb2HrLZVSVHGvDHjwtOgOXy2cKxab77558v57m8iqTrbZknlxsVUXLE1IpbEAZmMn1Uj4JHY3NB+YZ8/uzE5GAMGd4V1BwdI3nhqtza9O6W6wTD/tW01Lms1WqXzUZrVAmGHkJzXpY6Cvvq38xnT49NM8aQXeTJyyhk+2IjOWJXZ101Nldrv7/os/iLIukN2O82VJkv1z5ziQVDfpFKYbX8YV07LJ+M15MjdlSzqTyaiEpd11fbECtoq+3MXPuEDNlFFpQX6QYznbC83OwFa9pi+S7ZVIiomNy/OpoEkp+tXt8mw0ero+LoGS1igwuEjc3kyMU6tWGp7yg2YTmXEjsT0z4pQ4bbM9VFWoGkYrK2yYGgM+Z1UVUOLwKFOlp9kZ3JG2fr1ydhyC5S6SKDAblBcXIUTEF+HB2Vv7M2f5Zf0z41Q36RcqtjZYnNtcXRi0efTByXGhFCPr+hfSRDbnUkFC2L2Jq4tiSrB0oxhfM9kfYBDBmyYobqOwyH4rN3mpoMI/QSTxX0Et1h/jTR0Tu6KXWExnH5XII7/PJbqof5XEa5sb7El/l6anh01FJ5jLU9ZcVmVMpQ4S+YycqoGQrs3ByWpRf1TQytXEToCsUM+fUplyEYZmUbc/s6FCcyWZBzFPvD43fw9RlPJplgWJAeveuWYIItIjiVQOAUVxh++Z2Vx95Ll0MwzMiFy/IqmLm5nCUtd2zGpTGGt2cKesbZ8nAohueKgMgdVt5T9MoNvXLcxl5XNXLBkF+f4mAKsT+hGGbMgopj4F7U5AlK2Bw525TjnvYbu8hHhqrr42eycu00Q/NYFdhafmCMW5ONukg5nLSuXL02y3w98aYLzzm+8vqMzXwLYMhwklNtyncCoz4aNGpRFLXZv8vGdFy3AjrBX13GddlCfl/4Q36RnOTxiTJX2uSHMmQc1StbvJQdBI7vPv4Hl6IWf+wFzqx30apFMg/ML/LkTHV9zLycb/DDGbLjU5cMHvfKgVN7KtA5lfGgMQnn+jxSROjKj5cmXDhDBnUxVgcWHxMKhk5l1HofxUzVpaygQWDdvMQZFjUYcoXckqM1vzbPM7rTRm3DPoWao5lLfvJA1ix+02Jomucqo6Pkxi0J8x2Vcas5kXiYsU7XcAlFwswZftVkyDgq9V1AbW5JPGPWHZVqkaq8h00MrUBiXuJS+k6bITc6OEc3cPr18bQzaZOly7Z+fJ4tEPxMs3qfgKGJK6Q1mrTRNomujMpzrDjsD8oPvSlK/xLjaPXhSfSOnh1V1auekbE/qj/1q5whV0jaQ/IhoUoJqa23tewoyq/4h/jYY5mUPgGIAuYDkxd0s+sKl9F8njIvcxTt6mfybBVS+gQoCuDPMRGNoAYso/HkT8nv9oE81qOjXza9lDIsX4I3ghQmJ1QV/lf4QeYlU7S/qi3MAm2bENM5IIXkjSD5qEQPlNEcUU99ImjfY/wYHuwqsuQ55CFZnnUlHrcvYb4eMi8MJ3coP4brbzapixzHp4j3YAmzaIxAnjM9g45elvxylqU1lnl9j90j6CFdr78xaEfLKGhezCezYLleRaf/e/3driL6yBRSOSOxvEh/1bKSMsqiM4xezOxpPk8cfYRMDpYnz4/YeA4DqK6NIvnb4Bf/cNfxdOakJ78ximie7HrBQli7ahlFzYvgg5kfvgLvMZq6LnySoIdkVqfHLWtL4etx8yI7WL+PqONkPC8LYs72kSPkIfmDTK2JvCKez6L8FBVPf0Tya/aWD5nJ++sbAPNkVz4hh3+YMl+1XIpfZaXuyY4V5aisJJPAzQuRj1N9/Jag6wCrRvLCFZYczflR+mDllAQjcR8/97Ic8/D6jB+52ImSoaywgJ8xfcjrS8PRC1uaXjl/pq4Iy5vTGhyV7av1ZXVsGbBq7iRhH/9xM7CDNE+xKqvGkpD481sgGOaU8ZQORyQKwMUCWG0RLBAMT4msRkOoiDxZNqqXlN9yY1RnRjxJlZCj3HNpRGeIfMajL7L3BCyHGz9J9KhzSkAYsWoE6e4aotJYde8RPGSNr6gcRUzEb3UvSP/wPEd7NNxJc5KF3JP0Z3O49rEwkNyHQNqxDilSTNO5Cr7dcwZcuqF2kFDa0R4wEkZrctQCxE/ouzT6+EAxTcdB6gCQIenxavXxITuN1ox2yk8RLGj28ZHD1DD9ID/qE5XOtKjbIQWKaVoOkuJHik3eUJ9o8UaToYk4JbD9RYJWC1rzM7f6DLHAcHuOgNoD1rv6PQnD7azbPvmZGftayVDR5QbaTck5Zkh+YKxetYk2lLIHDEQBeazftw5yYdBgV+179Q0eHZlEKX8XpiAJP6g0XbW/U/yOjn6SvUO63aTJEeAHjWEwfsjjBH+APj7tISmXFQO9FjZmUrU/Ym2nMtYAps8dsgvkWaGlgIz5F26rTapY4xDwkNTmyMIq3lH4n85DS+0fKEfaQ6oEjHSwcLzLTbwz03kLSPQJ5Ai0m2QcyfAadzuPGqMcbRHc4x3IEfCQIo6kiMOhQyxRRp40jyG8MyGTA3hI/vBdXNxOCkTFUiOMXw2z+OtrmzjHGtzHRxKe7FnhlKFwliNG8DVSMYGl4i/nA2W1WQmsvEZPCChczUH+Ft4nlUQe7r/AO0DKnafH8XFx0ZmTVgDmp7BUfo/i127Fnj7TyBagKTAl4M9SWmKyj99af5XlThtEUmg0aoiPod44MNqc+9S4R2wsU8gP1QfyGIk+fm0o3ACeLSRRSI1qHVJOUffxZW+f1ur/6nHU6QMDK+dPk3a5NTIinYEMHVMG9BmYM92mj69RFkUVEu9gIfzm9fft+vganVtaITVWg/pET9JOMDzZ3a6IbWmYF8h6LaWd6swAGqRRMpQqpMbYox4/oPeEjeXAHEUKqdPnRirRq3JFd9eg/q+G8+B9yNiCeeQJu+XfIvzWpB3pHyKz21olw+NFIz+bO4OlE+mzibYBdkgh37P73ugKP6A9K5J2uAcMzVnttjcaBxI0iLVZo8utr+R75Cf/ZK0+PtJuegGOSHNEbq0ypgZDcHZ7t0MndCatdqbaffwtNCIRP3p0kPiwJF1u4OmmHQ0PIQ1K6oOKifr4yEDG9sND5BgbVEmt/k3C0ISOF481BdhVzy5jqwumqg4p7SGTDw8B/KDhq4xdJR6XvVUWuk/IscxkHIHwE2rUZOzMJ6oeTPXx6XaTvoOkIwv0dQOZX3S9+57sxyAeUocj3UfElmPyeYe0EB+APv6uZnvm/Mg+mwHlWozfH7BFegs95AzEVQhHYEwIMs/Q6yIWCG+wWQVAeaghEaDzCEkC+LqIZ/y5xTjSTzcpHSQtBph5gV8XEUP54SfIkQySZRyPKX6oeana37T5zTl+wF86QFyEKM8hkzK0lAOMscnBX6wADmSQ1j53Gmvkn59SYQMaNUBjbEqO38F7RKrb2WzujCGXVX+rimFQb05egI95bf/9K9EP8B5393I+MAtj/H7s5jt02n9t8O0RW7+cb84PnGKzd8VvzvFXEeSYtP+7pAe2tlj4QobXegjvUAe5zUAGal4ytgmE19ocP39FOSZUSLRAwMKXu5f54rzyA/jmoWQKCcbpjB8aXifhCAcB6FtAFteH5lqMHx5eJwPsIDWMDtw5L9o3D3v48soJ+nYlUCHhxgfjlyj8TAAWBIDOA0mOMPPC3PvP7cIzPbQ/ZXCOKoKgeclsFV4n5PgLdZDSwpXgi52k/LYMr5Mh/ANWAsRRAPyyJB5+Hupbx8MHNAjgr1XPPs/O5teHopX8/h7yW9XLH9BKAMP5SeEsx3BWOEWfWGfh9af9fkm1ANffUOehDcbvvxf/XmMENbQSoM3v1wG+SF2MyUfYQaJg6drdXr57GwX8iA3K7+YFw+uEaP9n4kaH4vf186vjx9GGs2SC3899hNfJEH7emmPR/vbh1fLjKD9sxZHxO0R4pgkeBCQyOrw6/wb4ccCl8jV+94cMzzSBZ8nP/HZQvd4rJn81HGTGrh40vE6ICM2SX0V4nQztO5PmyO7vdYTXyRD+IdoB6PDEK0ZZFQQw+Xzr/Ob48FXsIIu2/dLV3b1BkCUz93CjNzzxynH949a2q0U+9ZjJZIpV2/y+r+ru3hBe//f9hgkmI3pz//fDGzafKoT8ixIj+KugUqRIkSJFihQpUqRIkSJFihQp1vB/ZSGbCzMEKOIAAAAASUVORK5CYII=;" parent="1" vertex="1">
          <mxGeometry x="2078.05" y="1257.96" width="169.07" height="169.07" as="geometry" />
        </mxCell>
        <mxCell id="wfrsAKLX0jw9gLdjKss7-47" value="&lt;p style=&quot;line-height: 140%; font-size: 30px;&quot;&gt;&lt;br&gt;&lt;/p&gt;" style="rounded=1;whiteSpace=wrap;html=1;shadow=0;glass=0;sketch=1;fillWeight=2;hachureGap=12;hachureAngle=-41;jiggle=1;curveFitting=1;simplification=0;strokeColor=none;strokeWidth=2;fontFamily=Architects Daughter;fontSource=https%3A%2F%2Ffonts.googleapis.com%2Fcss%3Ffamily%3DArchitects%2BDaughter;fontSize=30;fontColor=#666666;fillColor=#95D2F5;" parent="1" vertex="1">
          <mxGeometry x="2067.58" y="1240" width="190" height="205" as="geometry" />
        </mxCell>
        <mxCell id="wfrsAKLX0jw9gLdjKss7-50" value="" style="shape=image;verticalLabelPosition=bottom;labelBackgroundColor=default;verticalAlign=top;aspect=fixed;imageAspect=0;image=data:image/png,iVBORw0KGgoAAAANSUhEUgAAAOEAAADhCAMAAAAJbSJIAAAAflBMVEX///8AAAAwMDAODg74+Pjv7+/f39/y8vLZ2dnOzs7Kysp7e3vq6urBwcFfX194eHiqqqqfn5+UlJSKioqwsLBpaWnj4+MgICCEhIQ/Pz8UFBS5ubk6OjpycnKQkJCkpKRGRkYqKipRUVFlZWVXV1cbGxskJCRCQkI1NTUtLS3r3xNZAAAHJ0lEQVR4nO2da5uaOhCArXILEK4hopGbuFv3///BA9o9tV1hCYSM5znzfqm2T5O8BjEZmGGzQRAEQRAEWYbtc4cQl4ooTtI0z70wLMLQy/M0TeJIUJcQh/s29DCl4a6I0uJyaPa7H1PY7ZvDpUgjRh0DeuxjGLbDYq+e5DRG7SURMV9L1bdEmh0Wq/3JIcsjx4dW6+TcODhMOxZncQpil4PZWSw7ruf2wDGLHO12PMq0yP2mjfXNpUHyk2a9OyfP1XECcr09iN6dfeGuq+cngHaflOsdriSAlvtFsM5EiuU/5uqohXI/AnNyGeZKlPqZun8bptAqXPEwaJkBmCpBD9pkkFCJn/1q38BHrgr2libkD/z3vJlLBY2tkoHsjh0P7/u3arYk26ULubk/8m/nMIkZJZZpG4/Y9l/vTYtQFifh+W1mT8EywUq2v+acM2rN+1wNi7L83MjObbVE0JToaBvkVMmm3HRoHnxI9Lzkq5hO7CMoha92Y2P4NJn6DUkX9DOl/XbFDbgVtVOGML8D+k3LbxcN4QUrCr47CdHZjY8epIfc1RXKtUk6Gsqbf5ieB9s8aYya3OHx8O7tPLvV64BetXghMQsz+vl8QNfZTT5dzyjemMlBnn7o29ntPV+xveWWwjHLYOXPVwOqDfvjNNJ/XcEYOkZXMeyotZ5r/JHzzFqGHdeQ6bDkwvtmIKsZ9pyCmKz3s2iSqh04oWszvHEMYqp6Ni0Rt1M3VOsb3nlv00504bVNw/TdqGzfpXrWZfgpWrdhGbmOxaevC2zfcjqxsK3l1GAMf/PWXH+eM6+MmbjflOB02pxb3Z+32xcEi8s8u9Sn7dz9PbShNtAQDV8fNETD1wcN0fCR3eAuVBunr/t8lYbHDa8g71g4V3zz9VYzpXN4+3uaQhy/1/R+k8m6c7j7/CdOPZ0HbO393oBqMuzx3XI4ZqyOoHT/uKSl0fAGZ16zmtwpfRIJ0m14wxHpZUI8ZTrHU5DQgbAsiOEN36FJcZ61SX/gGhSd21h4AM7wjmH6NEryQHJK93VWxoyY9vdhHmjDR1nfcQVjUZLmYZFlQRBkWVF0r9qsI/TSpIqYoMSSC0e+kOFKoKEMaAgDGsqAhjCgoQxoCAMayoCGMKChDGgIAxrKgIYwoKEMaAgDGsqAhjCgoQxoCAMayoCGMKChDGgIAxrKgIYwoKEMaAgDGsqAhjCgoQxP7uZWONK5fB2UUsMQusCv8aS2mtqMkqOyMnCzEM/K3qrOmXmPoApwG+L5fbnqs4J2hZZisH/hpEN3WK+S97RvhdaZJOnIbdWrZXY1qdBSqObbalGr5q59FAlRXObrAYPTckItrPWz87YXjxHFZSM4Yd6lmdj/7F7k8reO2yBhQ2kg07FclgRbqVro2jMs389eUgnC+xKJU7rpqyf6RFRJHjSzOgTMId2fzlkR5mUcCdfpsXpurwhlVVLmYdGeT0sLiGKWLBq+PmiIhq8PGqLh66M01qb6oUfyrF41wqogn+MRxJaOqhG2OxhPWJNteS/rqykibNO80WD1SZPTf4MmGmPe3C1n14qfzvsFtmqEaUUKniY3xCVn/EvAC+K6hWGx5KJYLkiGyrzDXZkxiEjaQ7NM7PhRFxUdrYMOfu3Jdwgru537VSbU8n64ZF4syGhBjFcx/MSwfZ8T0ccqbg/o9Iqi6B/Q2b8KPc/L07RM4v7Blb5vykSXX8ZwNdBQBjSEAQ1lQEMY0FAGNIQBDWVAQxjQUAY0hAENZUBDGNBQBjSEAQ1lQEMY0FAGNIQBDWVAQxjQUAY0hAENZUBDGNBQBjSEAQ1lQEMY0FCG/6PhjxCq2sAndvh1UGozSnYxpKMRq60aMZDkny/OZp6JlT8f0HV2i4PPbzzF/vf/WzF+dRoaznl2o+lQk32rpaOvNobhJIOfdkc6u2E60mpHE0Sjt5wrwmJtMz4QOr/x8YZvXOIV65wYJJ6S5bCgh7HD9IH3IqG+2iIgtk+TYmJ21fyDdLMxp3VxY1dn5bR0glEMi4gyk8o2WtRlJdHRL9GPOksYJVzu2DU4oSzJ6g+pghg3qiWCm82iZMOmDsJbToWgLnE4575v230aBucOcalgUZyUYVA3SzoJlgluDKUPwV2B7eLznAmRTDmdvYITnD24lHgBTmoWyU9qwL0IoRK/DgZtMoDC4nhmBi3zhFbt6p+82rfxSpT69dD10n3lqRcstkcgkLUGHgncVfx6/ARarqNceffteksrcy1hX6w3fb8xSA5T/+PgaSy5yaNCs14WKy5bOAGLZfJbnTkcCy3Rkuf4bhwcvgahlXEKYlf/3H3VtERZqP5qHrKUOfpjlmMYtiNir146obvaixkxoUtOj8NdEaXF5fCxn6a7238cLkUaCaoxBKsI2+cOIYSKPlzRl44IwyLsS0fcCkb0sQ3icB/6Yg+CIAiCIP99/gHFN5OJW6JEwQAAAABJRU5ErkJggg==;" parent="1" vertex="1">
          <mxGeometry x="2078.23" y="1640" width="190" height="190" as="geometry" />
        </mxCell>
        <mxCell id="wfrsAKLX0jw9gLdjKss7-51" value="&lt;p style=&quot;line-height: 140%; font-size: 30px;&quot;&gt;&lt;br&gt;&lt;/p&gt;" style="rounded=1;whiteSpace=wrap;html=1;shadow=0;glass=0;sketch=1;fillWeight=2;hachureGap=12;hachureAngle=-41;jiggle=1;curveFitting=1;simplification=0;strokeColor=none;strokeWidth=2;fontFamily=Architects Daughter;fontSource=https%3A%2F%2Ffonts.googleapis.com%2Fcss%3Ffamily%3DArchitects%2BDaughter;fontSize=30;fontColor=#666666;fillColor=#95D2F5;" parent="1" vertex="1">
          <mxGeometry x="2078.23" y="1632.5" width="190" height="205" as="geometry" />
        </mxCell>
        <mxCell id="wfrsAKLX0jw9gLdjKss7-52" value="计数&amp;amp;明细库&lt;br&gt;(兜底数据源)" style="text;html=1;strokeColor=none;fillColor=none;align=center;verticalAlign=middle;whiteSpace=wrap;rounded=0;sketch=1;fontSize=30;fontColor=#FF66FF;" parent="1" vertex="1">
          <mxGeometry x="2075.73" y="1855" width="195" height="80" as="geometry" />
        </mxCell>
        <mxCell id="wfrsAKLX0jw9gLdjKss7-53" value="计数Redis集群&lt;br&gt;(主数据源)" style="text;html=1;strokeColor=none;fillColor=none;align=center;verticalAlign=middle;whiteSpace=wrap;rounded=0;sketch=1;fontSize=30;fontColor=#FF66FF;" parent="1" vertex="1">
          <mxGeometry x="2060.26" y="1462.5" width="210.47" height="55" as="geometry" />
        </mxCell>
        <mxCell id="wfrsAKLX0jw9gLdjKss7-62" value="查询用户点赞状态、收藏状态、内容/评论点赞数、收藏数&lt;br&gt;等等" style="text;html=1;strokeColor=none;fillColor=none;align=center;verticalAlign=middle;whiteSpace=wrap;rounded=0;sketch=1;fontSize=30;fontColor=#FF66FF;" parent="1" vertex="1">
          <mxGeometry x="320" y="1632.5" width="300" height="255" as="geometry" />
        </mxCell>
        <mxCell id="wfrsAKLX0jw9gLdjKss7-64" value="查询内容点赞数、评论数、收藏数请求&lt;br&gt;查询评论点赞数请求&lt;br&gt;等等" style="text;html=1;strokeColor=none;fillColor=none;align=center;verticalAlign=middle;whiteSpace=wrap;rounded=0;sketch=1;fontSize=30;fontColor=#FF66FF;" parent="1" vertex="1">
          <mxGeometry x="370" y="1257.5" width="540" height="190" as="geometry" />
        </mxCell>
        <mxCell id="wfrsAKLX0jw9gLdjKss7-66" value="统一计数服务" style="text;html=1;strokeColor=none;fillColor=none;align=center;verticalAlign=middle;whiteSpace=wrap;rounded=0;sketch=1;fontSize=30;fontColor=#FF66FF;" parent="1" vertex="1">
          <mxGeometry x="1464.75" y="1620" width="188.5" height="70" as="geometry" />
        </mxCell>
        <mxCell id="wfrsAKLX0jw9gLdjKss7-13" value="&lt;p style=&quot;line-height: 140%; font-size: 30px;&quot;&gt;&lt;br&gt;&lt;/p&gt;" style="rounded=1;whiteSpace=wrap;html=1;shadow=0;glass=0;sketch=1;fillWeight=2;hachureGap=12;hachureAngle=-41;jiggle=1;curveFitting=1;simplification=0;strokeColor=#666666;strokeWidth=2;fontFamily=Architects Daughter;fontSource=https%3A%2F%2Ffonts.googleapis.com%2Fcss%3Ffamily%3DArchitects%2BDaughter;fontSize=30;fontColor=#666666;fillColor=#95D2F5;" parent="1" vertex="1">
          <mxGeometry x="120" y="1509.0600000000002" width="166.87" height="516.87" as="geometry" />
        </mxCell>
        <mxCell id="wfrsAKLX0jw9gLdjKss7-75" value="&lt;div data-docx-has-block-data=&quot;false&quot; data-page-id=&quot;MmY3dnBYno8vMrxCCS0ccUi1nzh&quot; style=&quot;font-size: 45px;&quot;&gt;&lt;div class=&quot;old-record-id-MmY3dnBYno8vMrxCCS0ccUi1nzh&quot; style=&quot;font-size: 45px;&quot;&gt;&lt;font color=&quot;#9933ff&quot; style=&quot;font-size: 45px;&quot;&gt;计数服务读请求新链路&lt;/font&gt;&lt;/div&gt;&lt;/div&gt;" style="text;html=1;strokeColor=none;fillColor=none;align=center;verticalAlign=middle;whiteSpace=wrap;rounded=0;sketch=1;fontSize=45;fontColor=#FF66FF;" parent="1" vertex="1">
          <mxGeometry x="595" y="1020" width="960" height="190" as="geometry" />
        </mxCell>
        <mxCell id="ZM-mjm2EeAOOezn5IHb1-17" value="1.&amp;nbsp; 查询Redis集群返回计数结果" style="text;html=1;strokeColor=none;fillColor=none;align=center;verticalAlign=middle;whiteSpace=wrap;rounded=0;sketch=1;fontSize=30;fontColor=#FF66FF;" parent="1" vertex="1">
          <mxGeometry x="1500" y="1270" width="605" height="80" as="geometry" />
        </mxCell>
        <mxCell id="SbgcjNpbk8q2pXtMnWmZ-1" value="" style="edgeStyle=orthogonalEdgeStyle;rounded=0;sketch=1;orthogonalLoop=1;jettySize=auto;html=1;strokeWidth=2;fontSize=30;fontColor=#FF66FF;entryX=0;entryY=0.5;entryDx=0;entryDy=0;strokeColor=#333333;" parent="1" target="wfrsAKLX0jw9gLdjKss7-47" edge="1">
          <mxGeometry relative="1" as="geometry">
            <mxPoint x="1879" y="1590" as="targetPoint" />
            <mxPoint x="1560" y="1481" as="sourcePoint" />
            <Array as="points">
              <mxPoint x="1560" y="1481" />
              <mxPoint x="1560" y="1273" />
            </Array>
          </mxGeometry>
        </mxCell>
        <mxCell id="SbgcjNpbk8q2pXtMnWmZ-2" value="" style="edgeStyle=orthogonalEdgeStyle;rounded=0;sketch=1;orthogonalLoop=1;jettySize=auto;html=1;strokeWidth=2;fontSize=30;fontColor=#FF66FF;strokeColor=#333333;exitX=0.5;exitY=0;exitDx=0;exitDy=0;" parent="1" source="wfrsAKLX0jw9gLdjKss7-66" edge="1">
          <mxGeometry relative="1" as="geometry">
            <mxPoint x="2080" y="1770" as="targetPoint" />
            <mxPoint x="1552.26" y="1958" as="sourcePoint" />
            <Array as="points">
              <mxPoint x="1559" y="1770" />
            </Array>
          </mxGeometry>
        </mxCell>
        <mxCell id="SbgcjNpbk8q2pXtMnWmZ-3" value="2.1&amp;nbsp; Redis数据缺失的情况下查询DB&lt;br&gt;获取计数结果" style="text;html=1;strokeColor=none;fillColor=none;align=center;verticalAlign=middle;whiteSpace=wrap;rounded=0;sketch=1;fontSize=30;fontColor=#FF66FF;" parent="1" vertex="1">
          <mxGeometry x="1500" y="1700" width="660" height="62.5" as="geometry" />
        </mxCell>
        <mxCell id="SbgcjNpbk8q2pXtMnWmZ-4" value="2.2&amp;nbsp; 异步触发填充Redis计数数据任务" style="text;html=1;strokeColor=none;fillColor=none;align=center;verticalAlign=middle;whiteSpace=wrap;rounded=0;sketch=1;fontSize=30;fontColor=#FF66FF;" parent="1" vertex="1">
          <mxGeometry x="1500" y="1775" width="660" height="62.5" as="geometry" />
        </mxCell>
      </root>
    </mxGraphModel>
  </diagram>
</mxfile>
